<mxfile host="app.diagrams.net" modified="2021-04-15T02:48:44.686Z" agent="5.0 (X11; Linux x86_64) AppleWebKit/537.36 (KHTML, like Gecko) Chrome/89.0.4389.128 Safari/537.36" etag="9WjQKUz4X_VYYV-70j4m" version="14.6.0" type="github">
  <diagram name="Home" id="2cc2dc42-3aac-f2a9-1cec-7a8b7cbee084">
    <mxGraphModel dx="1350" dy="1624" grid="1" gridSize="10" guides="1" tooltips="1" connect="1" arrows="1" fold="1" page="1" pageScale="1" pageWidth="1100" pageHeight="850" background="#ffffff" math="0" shadow="0">
      <root>
        <mxCell id="0" />
        <mxCell id="1" parent="0" />
        <mxCell id="7026571954dc6520-1" value="" style="strokeWidth=1;shadow=0;dashed=0;align=center;html=1;shape=mxgraph.mockup.containers.browserWindow;rSize=0;strokeColor=#666666;mainText=,;recursiveResize=0;rounded=0;labelBackgroundColor=none;fontFamily=Verdana;fontSize=12" parent="1" vertex="1">
          <mxGeometry x="30" y="20" width="1050" height="820" as="geometry" />
        </mxCell>
        <mxCell id="7026571954dc6520-2" value="Page 1" style="strokeWidth=1;shadow=0;dashed=0;align=center;html=1;shape=mxgraph.mockup.containers.anchor;fontSize=17;fontColor=#666666;align=left;" parent="7026571954dc6520-1" vertex="1">
          <mxGeometry x="60" y="12" width="110" height="26" as="geometry" />
        </mxCell>
        <mxCell id="7026571954dc6520-3" value="https://www.default.com" style="strokeWidth=1;shadow=0;dashed=0;align=center;html=1;shape=mxgraph.mockup.containers.anchor;rSize=0;fontSize=17;fontColor=#666666;align=left;" parent="7026571954dc6520-1" vertex="1">
          <mxGeometry x="130" y="60" width="250" height="26" as="geometry" />
        </mxCell>
        <mxCell id="7026571954dc6520-4" value="Website Name" style="text;html=1;points=[];align=left;verticalAlign=top;spacingTop=-4;fontSize=30;fontFamily=Verdana" parent="7026571954dc6520-1" vertex="1">
          <mxGeometry y="120" width="190" height="50" as="geometry" />
        </mxCell>
        <mxCell id="7026571954dc6520-15" value="" style="verticalLabelPosition=bottom;shadow=0;dashed=0;align=center;html=1;verticalAlign=top;strokeWidth=1;shape=mxgraph.mockup.markup.line;strokeColor=#999999;rounded=0;labelBackgroundColor=none;fillColor=#ffffff;fontFamily=Verdana;fontSize=12;fontColor=#000000;" parent="7026571954dc6520-1" vertex="1">
          <mxGeometry x="-5" y="160" width="1050" height="20" as="geometry" />
        </mxCell>
        <mxCell id="r13CFnbrn-Pdg_XW0rsK-1" value="&lt;font style=&quot;font-size: 15px&quot;&gt;Home&lt;/font&gt;" style="text;html=1;strokeColor=none;fillColor=none;align=center;verticalAlign=middle;whiteSpace=wrap;rounded=0;" vertex="1" parent="7026571954dc6520-1">
          <mxGeometry x="200" y="135" width="40" height="20" as="geometry" />
        </mxCell>
        <mxCell id="r13CFnbrn-Pdg_XW0rsK-2" value="&lt;font style=&quot;font-size: 15px&quot;&gt;Dashboard&lt;/font&gt;" style="text;html=1;strokeColor=none;fillColor=none;align=center;verticalAlign=middle;whiteSpace=wrap;rounded=0;" vertex="1" parent="7026571954dc6520-1">
          <mxGeometry x="270" y="135" width="40" height="20" as="geometry" />
        </mxCell>
        <mxCell id="r13CFnbrn-Pdg_XW0rsK-4" value="Login/Logout" style="strokeWidth=1;shadow=0;dashed=0;align=center;html=1;shape=mxgraph.mockup.buttons.button;strokeColor=#666666;fontColor=#ffffff;mainText=;buttonStyle=round;fontSize=17;fontStyle=1;fillColor=#008cff;whiteSpace=wrap;" vertex="1" parent="7026571954dc6520-1">
          <mxGeometry x="900" y="120" width="130" height="40" as="geometry" />
        </mxCell>
        <mxCell id="r13CFnbrn-Pdg_XW0rsK-5" value="&lt;font style=&quot;font-size: 15px&quot;&gt;My Saved Articles&lt;/font&gt;" style="text;html=1;strokeColor=none;fillColor=none;align=center;verticalAlign=middle;whiteSpace=wrap;rounded=0;" vertex="1" parent="7026571954dc6520-1">
          <mxGeometry x="340" y="135" width="130" height="20" as="geometry" />
        </mxCell>
        <mxCell id="r13CFnbrn-Pdg_XW0rsK-7" value="Only displays if logged in" style="strokeWidth=1;shadow=0;dashed=0;align=center;html=1;shape=mxgraph.mockup.text.callout;linkText=;textSize=17;textColor=#666666;callDir=NE;callStyle=line;fontSize=17;fontColor=#666666;align=right;verticalAlign=top;strokeColor=#666666;" vertex="1" parent="7026571954dc6520-1">
          <mxGeometry x="425" y="-50" width="285" height="185" as="geometry" />
        </mxCell>
        <mxCell id="r13CFnbrn-Pdg_XW0rsK-8" value="" style="verticalLabelPosition=bottom;shadow=0;dashed=0;align=center;html=1;verticalAlign=top;strokeWidth=1;shape=mxgraph.mockup.navigation.scrollBar;strokeColor=#999999;barPos=20;fillColor2=#99ddff;strokeColor2=none;direction=north;" vertex="1" parent="7026571954dc6520-1">
          <mxGeometry x="1020" y="180" width="20" height="630" as="geometry" />
        </mxCell>
        <mxCell id="r13CFnbrn-Pdg_XW0rsK-62" value="Option 1" style="strokeWidth=1;shadow=0;dashed=0;align=center;html=1;shape=mxgraph.mockup.forms.comboBox;strokeColor=#999999;fillColor=#ddeeff;align=left;fillColor2=#aaddff;mainText=;fontColor=#666666;fontSize=17;spacingLeft=3;" vertex="1" parent="7026571954dc6520-1">
          <mxGeometry x="450" y="190" width="120" height="30" as="geometry" />
        </mxCell>
        <mxCell id="r13CFnbrn-Pdg_XW0rsK-63" value="&lt;font style=&quot;font-size: 15px&quot;&gt;Show articles published between&lt;/font&gt;" style="text;html=1;strokeColor=none;fillColor=none;align=center;verticalAlign=middle;whiteSpace=wrap;rounded=0;" vertex="1" parent="7026571954dc6520-1">
          <mxGeometry x="300" y="195" width="135" height="20" as="geometry" />
        </mxCell>
        <mxCell id="r13CFnbrn-Pdg_XW0rsK-64" value="Option 1" style="strokeWidth=1;shadow=0;dashed=0;align=center;html=1;shape=mxgraph.mockup.forms.comboBox;strokeColor=#999999;fillColor=#ddeeff;align=left;fillColor2=#aaddff;mainText=;fontColor=#666666;fontSize=17;spacingLeft=3;" vertex="1" parent="7026571954dc6520-1">
          <mxGeometry x="630" y="190" width="120" height="30" as="geometry" />
        </mxCell>
        <mxCell id="r13CFnbrn-Pdg_XW0rsK-65" value="&lt;font style=&quot;font-size: 15px&quot;&gt;And&lt;/font&gt;" style="text;html=1;strokeColor=none;fillColor=none;align=center;verticalAlign=middle;whiteSpace=wrap;rounded=0;" vertex="1" parent="7026571954dc6520-1">
          <mxGeometry x="580" y="195" width="40" height="20" as="geometry" />
        </mxCell>
        <mxCell id="r13CFnbrn-Pdg_XW0rsK-66" value="" style="rounded=1;whiteSpace=wrap;html=1;" vertex="1" parent="7026571954dc6520-1">
          <mxGeometry x="195" y="280" width="660" height="90" as="geometry" />
        </mxCell>
        <mxCell id="r13CFnbrn-Pdg_XW0rsK-67" value="&lt;font style=&quot;font-size: 18px&quot; color=&quot;#3333ff&quot;&gt;&lt;u&gt;Article Title&lt;/u&gt;&lt;/font&gt;" style="text;html=1;strokeColor=none;fillColor=none;align=left;verticalAlign=middle;whiteSpace=wrap;rounded=0;" vertex="1" parent="7026571954dc6520-1">
          <mxGeometry x="200" y="290" width="110" height="20" as="geometry" />
        </mxCell>
        <mxCell id="r13CFnbrn-Pdg_XW0rsK-69" value="Date Published" style="text;html=1;strokeColor=none;fillColor=none;align=left;verticalAlign=middle;whiteSpace=wrap;rounded=0;" vertex="1" parent="7026571954dc6520-1">
          <mxGeometry x="200" y="315" width="110" height="20" as="geometry" />
        </mxCell>
        <mxCell id="r13CFnbrn-Pdg_XW0rsK-71" value="" style="rounded=1;whiteSpace=wrap;html=1;" vertex="1" parent="7026571954dc6520-1">
          <mxGeometry x="195" y="390" width="660" height="90" as="geometry" />
        </mxCell>
        <mxCell id="r13CFnbrn-Pdg_XW0rsK-88" value="" style="rounded=1;whiteSpace=wrap;html=1;" vertex="1" parent="7026571954dc6520-1">
          <mxGeometry x="195" y="500" width="660" height="90" as="geometry" />
        </mxCell>
        <mxCell id="r13CFnbrn-Pdg_XW0rsK-89" value="" style="rounded=1;whiteSpace=wrap;html=1;" vertex="1" parent="7026571954dc6520-1">
          <mxGeometry x="195" y="610" width="660" height="90" as="geometry" />
        </mxCell>
        <mxCell id="r13CFnbrn-Pdg_XW0rsK-90" value="" style="rounded=1;whiteSpace=wrap;html=1;" vertex="1" parent="7026571954dc6520-1">
          <mxGeometry x="195" y="720" width="660" height="90" as="geometry" />
        </mxCell>
        <mxCell id="r13CFnbrn-Pdg_XW0rsK-91" value="&lt;font style=&quot;font-size: 18px&quot; color=&quot;#3333ff&quot;&gt;&lt;u&gt;Article Title&lt;/u&gt;&lt;/font&gt;" style="text;html=1;strokeColor=none;fillColor=none;align=left;verticalAlign=middle;whiteSpace=wrap;rounded=0;" vertex="1" parent="7026571954dc6520-1">
          <mxGeometry x="200" y="400" width="110" height="20" as="geometry" />
        </mxCell>
        <mxCell id="r13CFnbrn-Pdg_XW0rsK-92" value="Date Published" style="text;html=1;strokeColor=none;fillColor=none;align=left;verticalAlign=middle;whiteSpace=wrap;rounded=0;" vertex="1" parent="7026571954dc6520-1">
          <mxGeometry x="200" y="425" width="110" height="20" as="geometry" />
        </mxCell>
        <mxCell id="r13CFnbrn-Pdg_XW0rsK-93" value="&lt;font style=&quot;font-size: 18px&quot; color=&quot;#3333ff&quot;&gt;&lt;u&gt;Article Title&lt;/u&gt;&lt;/font&gt;" style="text;html=1;strokeColor=none;fillColor=none;align=left;verticalAlign=middle;whiteSpace=wrap;rounded=0;" vertex="1" parent="7026571954dc6520-1">
          <mxGeometry x="200" y="510" width="110" height="20" as="geometry" />
        </mxCell>
        <mxCell id="r13CFnbrn-Pdg_XW0rsK-94" value="Date Published" style="text;html=1;strokeColor=none;fillColor=none;align=left;verticalAlign=middle;whiteSpace=wrap;rounded=0;" vertex="1" parent="7026571954dc6520-1">
          <mxGeometry x="200" y="535" width="110" height="20" as="geometry" />
        </mxCell>
        <mxCell id="r13CFnbrn-Pdg_XW0rsK-95" value="&lt;font style=&quot;font-size: 18px&quot; color=&quot;#3333ff&quot;&gt;&lt;u&gt;Article Title&lt;/u&gt;&lt;/font&gt;" style="text;html=1;strokeColor=none;fillColor=none;align=left;verticalAlign=middle;whiteSpace=wrap;rounded=0;" vertex="1" parent="7026571954dc6520-1">
          <mxGeometry x="200" y="620" width="110" height="20" as="geometry" />
        </mxCell>
        <mxCell id="r13CFnbrn-Pdg_XW0rsK-96" value="Date Published" style="text;html=1;strokeColor=none;fillColor=none;align=left;verticalAlign=middle;whiteSpace=wrap;rounded=0;" vertex="1" parent="7026571954dc6520-1">
          <mxGeometry x="200" y="645" width="110" height="20" as="geometry" />
        </mxCell>
        <mxCell id="r13CFnbrn-Pdg_XW0rsK-97" value="&lt;font style=&quot;font-size: 18px&quot; color=&quot;#3333ff&quot;&gt;&lt;u&gt;Article Title&lt;/u&gt;&lt;/font&gt;" style="text;html=1;strokeColor=none;fillColor=none;align=left;verticalAlign=middle;whiteSpace=wrap;rounded=0;" vertex="1" parent="7026571954dc6520-1">
          <mxGeometry x="200" y="730" width="110" height="20" as="geometry" />
        </mxCell>
        <mxCell id="r13CFnbrn-Pdg_XW0rsK-98" value="Date Published" style="text;html=1;strokeColor=none;fillColor=none;align=left;verticalAlign=middle;whiteSpace=wrap;rounded=0;" vertex="1" parent="7026571954dc6520-1">
          <mxGeometry x="200" y="755" width="110" height="20" as="geometry" />
        </mxCell>
        <mxCell id="r13CFnbrn-Pdg_XW0rsK-99" value="Link to article page" style="strokeWidth=1;shadow=0;dashed=0;align=center;html=1;shape=mxgraph.mockup.text.callout;linkText=;textSize=17;textColor=#666666;callDir=NW;callStyle=line;fontSize=17;fontColor=#666666;align=left;verticalAlign=top;strokeColor=#666666;" vertex="1" parent="7026571954dc6520-1">
          <mxGeometry x="15" y="235" width="175" height="65" as="geometry" />
        </mxCell>
      </root>
    </mxGraphModel>
  </diagram>
</mxfile>
